# Blender v3.0.0 OBJ File: 'SM_Deccer_Cubes_Textured.blend'
# www.blender.org
mtllib SM_Deccer_Cubes_Textured.mtl
o Cube
v 1.000000 1.000000 -1.000000
v 1.000000 -1.000000 -1.000000
v 1.000000 1.000000 1.000000
v 1.000000 -1.000000 1.000000
v -1.000000 1.000000 -1.000000
v -1.000000 -1.000000 -1.000000
v -1.000000 1.000000 1.000000
v -1.000000 -1.000000 1.000000
vt 0.000100 0.000100
vt 0.999900 0.000100
vt 0.999900 0.999900
vt 0.000100 0.999900
vt 0.000100 0.999900
vt 0.000100 0.000100
vt 0.999900 0.000100
vt 0.999900 0.999900
vt 0.999900 0.000100
vt 0.000100 0.999900
vt 0.000100 0.000100
vt 0.999900 0.000100
vt 0.999900 0.999900
vt 0.000100 0.999900
vt 0.000100 0.999900
vt 0.999900 0.000100
vt 0.999900 0.000100
vt 0.999900 0.999900
vt 0.000100 0.999900
vt 0.000100 0.000100
vn 0.0000 1.0000 0.0000
vn 0.0000 0.0000 1.0000
vn -1.0000 0.0000 0.0000
vn 0.0000 -1.0000 0.0000
vn 1.0000 0.0000 0.0000
vn 0.0000 0.0000 -1.0000
usemtl Material.LightGreen
s off
f 1/1/1 5/2/1 7/3/1 3/4/1
f 4/5/2 3/6/2 7/7/2 8/8/2
f 8/9/3 7/3/3 5/10/3 6/11/3
f 6/11/4 2/12/4 4/13/4 8/14/4
f 2/15/5 1/1/5 3/16/5 4/13/5
f 6/17/6 5/18/6 1/19/6 2/20/6
o Cube.001
v 2.129032 -2.619556 -9.518144
v 2.129032 -3.039556 -9.518144
v 2.129032 -2.619556 7.441855
v 2.129032 -3.039556 7.441855
v 1.869032 -2.619556 -9.518144
v 1.869032 -3.039556 -9.518144
v 1.869032 -2.619556 7.441855
v 1.869032 -3.039556 7.441855
vt 0.000100 0.000100
vt 0.999900 0.000100
vt 0.999900 0.999900
vt 0.000100 0.999900
vt 0.000100 0.999900
vt 0.000100 0.000100
vt 0.999900 0.000100
vt 0.999900 0.999900
vt 0.999900 0.000100
vt 0.000100 0.999900
vt 0.000100 0.000100
vt 0.999900 0.000100
vt 0.999900 0.999900
vt 0.000100 0.999900
vt 0.000100 0.999900
vt 0.999900 0.000100
vt 0.999900 0.000100
vt 0.999900 0.999900
vt 0.000100 0.999900
vt 0.000100 0.000100
vn 0.0000 1.0000 0.0000
vn 0.0000 0.0000 1.0000
vn -1.0000 0.0000 0.0000
vn 0.0000 -1.0000 0.0000
vn 1.0000 0.0000 0.0000
vn 0.0000 0.0000 -1.0000
usemtl Material.Blue
s off
f 9/21/7 13/22/7 15/23/7 11/24/7
f 12/25/8 11/26/8 15/27/8 16/28/8
f 16/29/9 15/23/9 13/30/9 14/31/9
f 14/31/10 10/32/10 12/33/10 16/34/10
f 10/35/11 9/21/11 11/36/11 12/33/11
f 14/37/12 13/38/12 9/39/12 10/40/12
o Cube.002
v 1.466273 8.975255 -3.975658
v 1.466273 -7.324744 -3.975658
v 1.466273 8.975255 -3.475658
v 1.466273 -7.324744 -3.475658
v 0.926273 8.975255 -3.975658
v 0.926273 -7.324744 -3.975658
v 0.926273 8.975255 -3.475658
v 0.926273 -7.324744 -3.475658
vt 0.000100 0.000100
vt 0.999900 0.000100
vt 0.999900 0.999900
vt 0.000100 0.999900
vt 0.000100 0.999900
vt 0.000100 0.000100
vt 0.999900 0.000100
vt 0.999900 0.999900
vt 0.999900 0.000100
vt 0.000100 0.999900
vt 0.000100 0.000100
vt 0.999900 0.000100
vt 0.999900 0.999900
vt 0.000100 0.999900
vt 0.000100 0.999900
vt 0.999900 0.000100
vt 0.999900 0.000100
vt 0.999900 0.999900
vt 0.000100 0.999900
vt 0.000100 0.000100
vn 0.0000 1.0000 0.0000
vn 0.0000 0.0000 1.0000
vn -1.0000 0.0000 0.0000
vn 0.0000 -1.0000 0.0000
vn 1.0000 0.0000 0.0000
vn 0.0000 0.0000 -1.0000
usemtl Material.Orange
s off
f 17/41/13 21/42/13 23/43/13 19/44/13
f 20/45/14 19/46/14 23/47/14 24/48/14
f 24/49/15 23/43/15 21/50/15 22/51/15
f 22/51/16 18/52/16 20/53/16 24/54/16
f 18/55/17 17/41/17 19/56/17 20/53/17
f 22/57/18 21/58/18 17/59/18 18/60/18
o Cube.003
v -2.371999 5.643300 2.616133
v -2.371999 -0.796700 2.616133
v -2.371999 5.643300 3.056133
v -2.371999 -0.796700 3.056133
v -2.771999 5.643300 2.616133
v -2.771999 -0.796700 2.616133
v -2.771999 5.643300 3.056133
v -2.771999 -0.796700 3.056133
vt 0.000100 0.000100
vt 0.999900 0.000100
vt 0.999900 0.999900
vt 0.000100 0.999900
vt 0.000100 0.999900
vt 0.000100 0.000100
vt 0.999900 0.000100
vt 0.999900 0.999900
vt 0.999900 0.000100
vt 0.000100 0.999900
vt 0.000100 0.000100
vt 0.999900 0.000100
vt 0.999900 0.999900
vt 0.000100 0.999900
vt 0.000100 0.999900
vt 0.999900 0.000100
vt 0.999900 0.000100
vt 0.999900 0.999900
vt 0.000100 0.999900
vt 0.000100 0.000100
vn 0.0000 1.0000 0.0000
vn 0.0000 0.0000 1.0000
vn -1.0000 0.0000 0.0000
vn 0.0000 -1.0000 0.0000
vn 1.0000 0.0000 0.0000
vn 0.0000 0.0000 -1.0000
usemtl Material.Purple
s off
f 25/61/19 29/62/19 31/63/19 27/64/19
f 28/65/20 27/66/20 31/67/20 32/68/20
f 32/69/21 31/63/21 29/70/21 30/71/21
f 30/71/22 26/72/22 28/73/22 32/74/22
f 26/75/23 25/61/23 27/76/23 28/73/23
f 30/77/24 29/78/24 25/79/24 26/80/24
o Cube.004
v 1.823426 -2.491632 0.114372
v 1.823426 -2.731632 0.114372
v 1.823426 -2.491632 4.614372
v 1.823426 -2.731632 4.614372
v -2.836574 -2.491632 0.114372
v -2.836574 -2.731632 0.114372
v -2.836574 -2.491632 4.614372
v -2.836574 -2.731632 4.614372
vt 0.000100 0.000100
vt 0.999900 0.000100
vt 0.999900 0.999900
vt 0.000100 0.999900
vt 0.000100 0.999900
vt 0.000100 0.000100
vt 0.999900 0.000100
vt 0.999900 0.999900
vt 0.999900 0.000100
vt 0.000100 0.999900
vt 0.000100 0.000100
vt 0.999900 0.000100
vt 0.999900 0.999900
vt 0.000100 0.999900
vt 0.000100 0.999900
vt 0.999900 0.000100
vt 0.999900 0.000100
vt 0.999900 0.999900
vt 0.000100 0.999900
vt 0.000100 0.000100
vn 0.0000 1.0000 0.0000
vn 0.0000 0.0000 1.0000
vn -1.0000 0.0000 0.0000
vn 0.0000 -1.0000 0.0000
vn 1.0000 0.0000 0.0000
vn 0.0000 0.0000 -1.0000
usemtl Material.Red
s off
f 33/81/25 37/82/25 39/83/25 35/84/25
f 36/85/26 35/86/26 39/87/26 40/88/26
f 40/89/27 39/83/27 37/90/27 38/91/27
f 38/91/28 34/92/28 36/93/28 40/94/28
f 34/95/29 33/81/29 35/96/29 36/93/29
f 38/97/30 37/98/30 33/99/30 34/100/30
