{
	"asset":{
		"generator":"Khronos glTF Blender I/O v4.2.57",
		"version":"2.0"
	},
	"scene":0,
	"scenes":[
		{
			"name":"Scene",
			"nodes":[
				4
			]
		}
	],
	"nodes":[
		{
			"mesh":0,
			"name":"Cube.001",
			"scale":[
				0.12999999523162842,
				0.21000003814697266,
				8.479999542236328
			],
			"translation":[
				1.9990320205688477,
				-2.8295559883117676,
				-1.0381441116333008
			]
		},
		{
			"mesh":1,
			"name":"Cube.002",
			"scale":[
				0.27000004053115845,
				8.149999618530273,
				0.25
			],
			"translation":[
				1.196272611618042,
				0.8252556324005127,
				-3.7256577014923096
			]
		},
		{
			"mesh":2,
			"name":"Cube.003",
			"scale":[
				0.20000004768371582,
				3.2200000286102295,
				0.2200000286102295
			],
			"translation":[
				-2.5719985961914062,
				2.42330002784729,
				2.8361332416534424
			]
		},
		{
			"mesh":3,
			"name":"Cube.004",
			"scale":[
				2.3299999237060547,
				0.12000000476837158,
				2.25
			],
			"translation":[
				-0.5065736770629883,
				-2.6116321086883545,
				2.3643717765808105
			]
		},
		{
			"children":[
				0,
				1,
				2,
				3
			],
			"mesh":4,
			"name":"Cube"
		}
	],
	"animations":[
		{
			"channels":[
				{
					"sampler":0,
					"target":{
						"node":4,
						"path":"translation"
					}
				},
				{
					"sampler":1,
					"target":{
						"node":4,
						"path":"rotation"
					}
				},
				{
					"sampler":2,
					"target":{
						"node":4,
						"path":"scale"
					}
				}
			],
			"name":"CubeAction",
			"samplers":[
				{
					"input":16,
					"interpolation":"LINEAR",
					"output":17
				},
				{
					"input":16,
					"interpolation":"LINEAR",
					"output":18
				},
				{
					"input":16,
					"interpolation":"LINEAR",
					"output":19
				}
			]
		},
		{
			"channels":[
				{
					"sampler":0,
					"target":{
						"node":0,
						"path":"translation"
					}
				},
				{
					"sampler":1,
					"target":{
						"node":0,
						"path":"rotation"
					}
				},
				{
					"sampler":2,
					"target":{
						"node":0,
						"path":"scale"
					}
				}
			],
			"name":"Cube.001Action",
			"samplers":[
				{
					"input":20,
					"interpolation":"STEP",
					"output":21
				},
				{
					"input":22,
					"interpolation":"LINEAR",
					"output":23
				},
				{
					"input":20,
					"interpolation":"STEP",
					"output":24
				}
			]
		},
		{
			"channels":[
				{
					"sampler":0,
					"target":{
						"node":1,
						"path":"translation"
					}
				},
				{
					"sampler":1,
					"target":{
						"node":1,
						"path":"rotation"
					}
				},
				{
					"sampler":2,
					"target":{
						"node":1,
						"path":"scale"
					}
				}
			],
			"name":"Cube.002Action",
			"samplers":[
				{
					"input":20,
					"interpolation":"STEP",
					"output":25
				},
				{
					"input":22,
					"interpolation":"LINEAR",
					"output":26
				},
				{
					"input":20,
					"interpolation":"STEP",
					"output":27
				}
			]
		},
		{
			"channels":[
				{
					"sampler":0,
					"target":{
						"node":2,
						"path":"translation"
					}
				},
				{
					"sampler":1,
					"target":{
						"node":2,
						"path":"rotation"
					}
				},
				{
					"sampler":2,
					"target":{
						"node":2,
						"path":"scale"
					}
				}
			],
			"name":"Cube.003Action",
			"samplers":[
				{
					"input":20,
					"interpolation":"STEP",
					"output":28
				},
				{
					"input":22,
					"interpolation":"LINEAR",
					"output":29
				},
				{
					"input":20,
					"interpolation":"STEP",
					"output":30
				}
			]
		},
		{
			"channels":[
				{
					"sampler":0,
					"target":{
						"node":3,
						"path":"translation"
					}
				},
				{
					"sampler":1,
					"target":{
						"node":3,
						"path":"rotation"
					}
				},
				{
					"sampler":2,
					"target":{
						"node":3,
						"path":"scale"
					}
				}
			],
			"name":"Cube.004Action",
			"samplers":[
				{
					"input":20,
					"interpolation":"STEP",
					"output":31
				},
				{
					"input":22,
					"interpolation":"LINEAR",
					"output":32
				},
				{
					"input":20,
					"interpolation":"STEP",
					"output":33
				}
			]
		}
	],
	"materials":[
		{
			"doubleSided":true,
			"name":"Material.Blue",
			"pbrMetallicRoughness":{
				"baseColorTexture":{
					"index":0
				},
				"metallicFactor":0,
				"roughnessFactor":0.5
			}
		},
		{
			"doubleSided":true,
			"name":"Material.Orange",
			"pbrMetallicRoughness":{
				"baseColorTexture":{
					"index":1
				},
				"metallicFactor":0,
				"roughnessFactor":0.5
			}
		},
		{
			"doubleSided":true,
			"name":"Material.Purple",
			"pbrMetallicRoughness":{
				"baseColorTexture":{
					"index":2
				},
				"metallicFactor":0,
				"roughnessFactor":0.5
			}
		},
		{
			"doubleSided":true,
			"name":"Material.Red",
			"pbrMetallicRoughness":{
				"baseColorTexture":{
					"index":3
				},
				"metallicFactor":0,
				"roughnessFactor":0.5
			}
		},
		{
			"doubleSided":true,
			"name":"Material.LightGreen",
			"pbrMetallicRoughness":{
				"baseColorTexture":{
					"index":4
				},
				"metallicFactor":0,
				"roughnessFactor":0.5
			}
		}
	],
	"meshes":[
		{
			"name":"Cube.001",
			"primitives":[
				{
					"attributes":{
						"POSITION":0,
						"NORMAL":1,
						"TEXCOORD_0":2
					},
					"indices":3,
					"material":0
				}
			]
		},
		{
			"name":"Cube.002",
			"primitives":[
				{
					"attributes":{
						"POSITION":4,
						"NORMAL":5,
						"TEXCOORD_0":6
					},
					"indices":3,
					"material":1
				}
			]
		},
		{
			"name":"Cube.003",
			"primitives":[
				{
					"attributes":{
						"POSITION":7,
						"NORMAL":8,
						"TEXCOORD_0":9
					},
					"indices":3,
					"material":2
				}
			]
		},
		{
			"name":"Cube.004",
			"primitives":[
				{
					"attributes":{
						"POSITION":10,
						"NORMAL":11,
						"TEXCOORD_0":12
					},
					"indices":3,
					"material":3
				}
			]
		},
		{
			"name":"Cube",
			"primitives":[
				{
					"attributes":{
						"POSITION":13,
						"NORMAL":14,
						"TEXCOORD_0":15
					},
					"indices":3,
					"material":4
				}
			]
		}
	],
	"textures":[
		{
			"sampler":0,
			"source":0
		},
		{
			"sampler":0,
			"source":1
		},
		{
			"sampler":0,
			"source":2
		},
		{
			"sampler":0,
			"source":3
		},
		{
			"sampler":0,
			"source":4
		}
	],
	"images":[
		{
			"mimeType":"image/png",
			"name":"T_Blue_D",
			"uri":"T_Blue_D.png"
		},
		{
			"mimeType":"image/png",
			"name":"T_Orange_D",
			"uri":"T_Orange_D.png"
		},
		{
			"mimeType":"image/png",
			"name":"T_Purple_D",
			"uri":"T_Purple_D.png"
		},
		{
			"mimeType":"image/png",
			"name":"T_Red_D",
			"uri":"T_Red_D.png"
		},
		{
			"mimeType":"image/png",
			"name":"T_LightGreen_D",
			"uri":"T_LightGreen_D.png"
		}
	],
	"accessors":[
		{
			"bufferView":0,
			"componentType":5126,
			"count":24,
			"max":[
				1,
				1,
				1
			],
			"min":[
				-1,
				-1,
				-1
			],
			"type":"VEC3"
		},
		{
			"bufferView":1,
			"componentType":5126,
			"count":24,
			"type":"VEC3"
		},
		{
			"bufferView":2,
			"componentType":5126,
			"count":24,
			"type":"VEC2"
		},
		{
			"bufferView":3,
			"componentType":5123,
			"count":36,
			"type":"SCALAR"
		},
		{
			"bufferView":4,
			"componentType":5126,
			"count":24,
			"max":[
				1,
				1,
				1
			],
			"min":[
				-1,
				-1,
				-1
			],
			"type":"VEC3"
		},
		{
			"bufferView":5,
			"componentType":5126,
			"count":24,
			"type":"VEC3"
		},
		{
			"bufferView":6,
			"componentType":5126,
			"count":24,
			"type":"VEC2"
		},
		{
			"bufferView":7,
			"componentType":5126,
			"count":24,
			"max":[
				1,
				1,
				1
			],
			"min":[
				-1,
				-1,
				-1
			],
			"type":"VEC3"
		},
		{
			"bufferView":8,
			"componentType":5126,
			"count":24,
			"type":"VEC3"
		},
		{
			"bufferView":9,
			"componentType":5126,
			"count":24,
			"type":"VEC2"
		},
		{
			"bufferView":10,
			"componentType":5126,
			"count":24,
			"max":[
				1,
				1,
				1
			],
			"min":[
				-1,
				-1,
				-1
			],
			"type":"VEC3"
		},
		{
			"bufferView":11,
			"componentType":5126,
			"count":24,
			"type":"VEC3"
		},
		{
			"bufferView":12,
			"componentType":5126,
			"count":24,
			"type":"VEC2"
		},
		{
			"bufferView":13,
			"componentType":5126,
			"count":24,
			"max":[
				1,
				1,
				1
			],
			"min":[
				-1,
				-1,
				-1
			],
			"type":"VEC3"
		},
		{
			"bufferView":14,
			"componentType":5126,
			"count":24,
			"type":"VEC3"
		},
		{
			"bufferView":15,
			"componentType":5126,
			"count":24,
			"type":"VEC2"
		},
		{
			"bufferView":16,
			"componentType":5126,
			"count":1,
			"max":[
				0.041666666666666664
			],
			"min":[
				0.041666666666666664
			],
			"type":"SCALAR"
		},
		{
			"bufferView":17,
			"componentType":5126,
			"count":1,
			"type":"VEC3"
		},
		{
			"bufferView":18,
			"componentType":5126,
			"count":1,
			"type":"VEC4"
		},
		{
			"bufferView":19,
			"componentType":5126,
			"count":1,
			"type":"VEC3"
		},
		{
			"bufferView":20,
			"componentType":5126,
			"count":2,
			"max":[
				10.416666666666666
			],
			"min":[
				0.041666666666666664
			],
			"type":"SCALAR"
		},
		{
			"bufferView":21,
			"componentType":5126,
			"count":2,
			"type":"VEC3"
		},
		{
			"bufferView":22,
			"componentType":5126,
			"count":250,
			"max":[
				10.416666666666666
			],
			"min":[
				0.041666666666666664
			],
			"type":"SCALAR"
		},
		{
			"bufferView":23,
			"componentType":5126,
			"count":250,
			"type":"VEC4"
		},
		{
			"bufferView":24,
			"componentType":5126,
			"count":2,
			"type":"VEC3"
		},
		{
			"bufferView":25,
			"componentType":5126,
			"count":2,
			"type":"VEC3"
		},
		{
			"bufferView":26,
			"componentType":5126,
			"count":250,
			"type":"VEC4"
		},
		{
			"bufferView":27,
			"componentType":5126,
			"count":2,
			"type":"VEC3"
		},
		{
			"bufferView":28,
			"componentType":5126,
			"count":2,
			"type":"VEC3"
		},
		{
			"bufferView":29,
			"componentType":5126,
			"count":250,
			"type":"VEC4"
		},
		{
			"bufferView":30,
			"componentType":5126,
			"count":2,
			"type":"VEC3"
		},
		{
			"bufferView":31,
			"componentType":5126,
			"count":2,
			"type":"VEC3"
		},
		{
			"bufferView":32,
			"componentType":5126,
			"count":250,
			"type":"VEC4"
		},
		{
			"bufferView":33,
			"componentType":5126,
			"count":2,
			"type":"VEC3"
		}
	],
	"bufferViews":[
		{
			"buffer":0,
			"byteLength":288,
			"byteOffset":0,
			"target":34962
		},
		{
			"buffer":0,
			"byteLength":288,
			"byteOffset":288,
			"target":34962
		},
		{
			"buffer":0,
			"byteLength":192,
			"byteOffset":576,
			"target":34962
		},
		{
			"buffer":0,
			"byteLength":72,
			"byteOffset":768,
			"target":34963
		},
		{
			"buffer":0,
			"byteLength":288,
			"byteOffset":840,
			"target":34962
		},
		{
			"buffer":0,
			"byteLength":288,
			"byteOffset":1128,
			"target":34962
		},
		{
			"buffer":0,
			"byteLength":192,
			"byteOffset":1416,
			"target":34962
		},
		{
			"buffer":0,
			"byteLength":288,
			"byteOffset":1608,
			"target":34962
		},
		{
			"buffer":0,
			"byteLength":288,
			"byteOffset":1896,
			"target":34962
		},
		{
			"buffer":0,
			"byteLength":192,
			"byteOffset":2184,
			"target":34962
		},
		{
			"buffer":0,
			"byteLength":288,
			"byteOffset":2376,
			"target":34962
		},
		{
			"buffer":0,
			"byteLength":288,
			"byteOffset":2664,
			"target":34962
		},
		{
			"buffer":0,
			"byteLength":192,
			"byteOffset":2952,
			"target":34962
		},
		{
			"buffer":0,
			"byteLength":288,
			"byteOffset":3144,
			"target":34962
		},
		{
			"buffer":0,
			"byteLength":288,
			"byteOffset":3432,
			"target":34962
		},
		{
			"buffer":0,
			"byteLength":192,
			"byteOffset":3720,
			"target":34962
		},
		{
			"buffer":0,
			"byteLength":4,
			"byteOffset":3912
		},
		{
			"buffer":0,
			"byteLength":12,
			"byteOffset":3916
		},
		{
			"buffer":0,
			"byteLength":16,
			"byteOffset":3928
		},
		{
			"buffer":0,
			"byteLength":12,
			"byteOffset":3944
		},
		{
			"buffer":0,
			"byteLength":8,
			"byteOffset":3956
		},
		{
			"buffer":0,
			"byteLength":24,
			"byteOffset":3964
		},
		{
			"buffer":0,
			"byteLength":1000,
			"byteOffset":3988
		},
		{
			"buffer":0,
			"byteLength":4000,
			"byteOffset":4988
		},
		{
			"buffer":0,
			"byteLength":24,
			"byteOffset":8988
		},
		{
			"buffer":0,
			"byteLength":24,
			"byteOffset":9012
		},
		{
			"buffer":0,
			"byteLength":4000,
			"byteOffset":9036
		},
		{
			"buffer":0,
			"byteLength":24,
			"byteOffset":13036
		},
		{
			"buffer":0,
			"byteLength":24,
			"byteOffset":13060
		},
		{
			"buffer":0,
			"byteLength":4000,
			"byteOffset":13084
		},
		{
			"buffer":0,
			"byteLength":24,
			"byteOffset":17084
		},
		{
			"buffer":0,
			"byteLength":24,
			"byteOffset":17108
		},
		{
			"buffer":0,
			"byteLength":4000,
			"byteOffset":17132
		},
		{
			"buffer":0,
			"byteLength":24,
			"byteOffset":21132
		}
	],
	"samplers":[
		{
			"magFilter":9729,
			"minFilter":9987
		}
	],
	"buffers":[
		{
			"byteLength":21156,
			"uri":"SM_Deccer_Cubes_Textured_Animated.bin"
		}
	]
}
