{
    "asset" : {
        "generator" : "Khronos glTF Blender I/O v1.8.19",
        "version" : "2.0"
    },
    "scene" : 0,
    "scenes" : [
        {
            "name" : "Scene",
            "nodes" : [
                0,
                1,
                2,
                3,
                4,
                5,
                6,
                7,
                8
            ]
        }
    ],
    "nodes" : [
        {
            "mesh" : 0,
            "name" : "Cubes",
            "rotation" : [
                0.6959313154220581,
                0.12521804869174957,
                -0.12521804869174957,
                0.6959313750267029
            ],
            "scale" : [
                0.011099997907876968,
                0.009999999776482582,
                0.009999999776482582
            ]
        },
        {
            "mesh" : 1,
            "name" : "Cubes.001",
            "rotation" : [
                0.6959313154220581,
                0.12521804869174957,
                -0.12521804869174957,
                0.6959313750267029
            ],
            "scale" : [
                0.011099997907876968,
                0.009999999776482582,
                0.009999999776482582
            ]
        },
        {
            "mesh" : 2,
            "name" : "Cubes.002",
            "rotation" : [
                0.6959313154220581,
                0.12521804869174957,
                -0.12521804869174957,
                0.6959313750267029
            ],
            "scale" : [
                0.011099997907876968,
                0.009999999776482582,
                0.009999999776482582
            ]
        },
        {
            "mesh" : 3,
            "name" : "Cubes.003",
            "rotation" : [
                0.6959313154220581,
                0.12521804869174957,
                -0.12521804869174957,
                0.6959313750267029
            ],
            "scale" : [
                0.011099997907876968,
                0.009999999776482582,
                0.009999999776482582
            ]
        },
        {
            "mesh" : 4,
            "name" : "Cubes.004",
            "rotation" : [
                0.6959313154220581,
                0.12521804869174957,
                -0.12521804869174957,
                0.6959313750267029
            ],
            "scale" : [
                0.011099997907876968,
                0.009999999776482582,
                0.009999999776482582
            ]
        },
        {
            "mesh" : 5,
            "name" : "Cubes.005",
            "rotation" : [
                0.6959313154220581,
                0.12521804869174957,
                -0.12521804869174957,
                0.6959313750267029
            ],
            "scale" : [
                0.011099997907876968,
                0.009999999776482582,
                0.009999999776482582
            ]
        },
        {
            "mesh" : 6,
            "name" : "Cubes.006",
            "rotation" : [
                0.6959313154220581,
                0.12521804869174957,
                -0.12521804869174957,
                0.6959313750267029
            ],
            "scale" : [
                0.011099997907876968,
                0.009999999776482582,
                0.009999999776482582
            ]
        },
        {
            "mesh" : 7,
            "name" : "Cubes.007",
            "rotation" : [
                0.6959313154220581,
                0.12521804869174957,
                -0.12521804869174957,
                0.6959313750267029
            ],
            "scale" : [
                0.011099997907876968,
                0.009999999776482582,
                0.009999999776482582
            ]
        },
        {
            "mesh" : 8,
            "name" : "Cubes.008",
            "rotation" : [
                0.6959313154220581,
                0.12521804869174957,
                -0.12521804869174957,
                0.6959313750267029
            ],
            "scale" : [
                0.011099997907876968,
                0.009999999776482582,
                0.009999999776482582
            ]
        }
    ],
    "materials" : [
        {
            "doubleSided" : true,
            "name" : "Material.001",
            "pbrMetallicRoughness" : {
                "baseColorFactor" : [
                    0.800000011920929,
                    0.800000011920929,
                    0.800000011920929,
                    1
                ],
                "metallicFactor" : 0,
                "roughnessFactor" : 0.4000000059604645
            }
        }
    ],
    "meshes" : [
        {
            "name" : "Cube.001",
            "primitives" : [
                {
                    "attributes" : {
                        "POSITION" : 0,
                        "NORMAL" : 1,
                        "TEXCOORD_0" : 2
                    },
                    "indices" : 3,
                    "material" : 0
                }
            ]
        },
        {
            "name" : "Cube.002",
            "primitives" : [
                {
                    "attributes" : {
                        "POSITION" : 4,
                        "NORMAL" : 5,
                        "TEXCOORD_0" : 6
                    },
                    "indices" : 7,
                    "material" : 0
                }
            ]
        },
        {
            "name" : "Cube.003",
            "primitives" : [
                {
                    "attributes" : {
                        "POSITION" : 8,
                        "NORMAL" : 9,
                        "TEXCOORD_0" : 10
                    },
                    "indices" : 11,
                    "material" : 0
                }
            ]
        },
        {
            "name" : "Cube.004",
            "primitives" : [
                {
                    "attributes" : {
                        "POSITION" : 12,
                        "NORMAL" : 13,
                        "TEXCOORD_0" : 14
                    },
                    "indices" : 15,
                    "material" : 0
                }
            ]
        },
        {
            "name" : "Cube.005",
            "primitives" : [
                {
                    "attributes" : {
                        "POSITION" : 16,
                        "NORMAL" : 17,
                        "TEXCOORD_0" : 18
                    },
                    "indices" : 11,
                    "material" : 0
                }
            ]
        },
        {
            "name" : "Cube.006",
            "primitives" : [
                {
                    "attributes" : {
                        "POSITION" : 19,
                        "NORMAL" : 20,
                        "TEXCOORD_0" : 21
                    },
                    "indices" : 11,
                    "material" : 0
                }
            ]
        },
        {
            "name" : "Cube.007",
            "primitives" : [
                {
                    "attributes" : {
                        "POSITION" : 22,
                        "NORMAL" : 23,
                        "TEXCOORD_0" : 24
                    },
                    "indices" : 11,
                    "material" : 0
                }
            ]
        },
        {
            "name" : "Cube.008",
            "primitives" : [
                {
                    "attributes" : {
                        "POSITION" : 25,
                        "NORMAL" : 26,
                        "TEXCOORD_0" : 27
                    },
                    "indices" : 28,
                    "material" : 0
                }
            ]
        },
        {
            "name" : "Cube.009",
            "primitives" : [
                {
                    "attributes" : {
                        "POSITION" : 29,
                        "NORMAL" : 30,
                        "TEXCOORD_0" : 31
                    },
                    "indices" : 11,
                    "material" : 0
                }
            ]
        }
    ],
    "accessors" : [
        {
            "bufferView" : 0,
            "componentType" : 5126,
            "count" : 24,
            "max" : [
                100,
                100,
                100
            ],
            "min" : [
                -100,
                -100,
                -100
            ],
            "type" : "VEC3"
        },
        {
            "bufferView" : 1,
            "componentType" : 5126,
            "count" : 24,
            "type" : "VEC3"
        },
        {
            "bufferView" : 2,
            "componentType" : 5126,
            "count" : 24,
            "type" : "VEC2"
        },
        {
            "bufferView" : 3,
            "componentType" : 5123,
            "count" : 36,
            "type" : "SCALAR"
        },
        {
            "bufferView" : 4,
            "componentType" : 5126,
            "count" : 24,
            "max" : [
                -44.61400604248047,
                143.94676208496094,
                -181.14208984375
            ],
            "min" : [
                -500.6446838378906,
                -76.611572265625,
                -595.3538208007812
            ],
            "type" : "VEC3"
        },
        {
            "bufferView" : 5,
            "componentType" : 5126,
            "count" : 24,
            "type" : "VEC3"
        },
        {
            "bufferView" : 6,
            "componentType" : 5126,
            "count" : 24,
            "type" : "VEC2"
        },
        {
            "bufferView" : 7,
            "componentType" : 5123,
            "count" : 36,
            "type" : "SCALAR"
        },
        {
            "bufferView" : 8,
            "componentType" : 5126,
            "count" : 24,
            "max" : [
                131.92100524902344,
                -64.50264739990234,
                -357.5910949707031
            ],
            "min" : [
                -87.4257583618164,
                -541.1060180664062,
                -419.59124755859375
            ],
            "type" : "VEC3"
        },
        {
            "bufferView" : 9,
            "componentType" : 5126,
            "count" : 24,
            "type" : "VEC3"
        },
        {
            "bufferView" : 10,
            "componentType" : 5126,
            "count" : 24,
            "type" : "VEC2"
        },
        {
            "bufferView" : 11,
            "componentType" : 5123,
            "count" : 36,
            "type" : "SCALAR"
        },
        {
            "bufferView" : 12,
            "componentType" : 5126,
            "count" : 24,
            "max" : [
                -110.5666732788086,
                -31.199752807617188,
                -513.12548828125
            ],
            "min" : [
                -398.225830078125,
                -311.4768981933594,
                -779.4136962890625
            ],
            "type" : "VEC3"
        },
        {
            "bufferView" : 13,
            "componentType" : 5126,
            "count" : 24,
            "type" : "VEC3"
        },
        {
            "bufferView" : 14,
            "componentType" : 5126,
            "count" : 24,
            "type" : "VEC2"
        },
        {
            "bufferView" : 15,
            "componentType" : 5123,
            "count" : 36,
            "type" : "SCALAR"
        },
        {
            "bufferView" : 16,
            "componentType" : 5126,
            "count" : 24,
            "max" : [
                -366.3975524902344,
                548.92041015625,
                45.575904846191406
            ],
            "min" : [
                -598.0830078125,
                291.74957275390625,
                -408.4238586425781
            ],
            "type" : "VEC3"
        },
        {
            "bufferView" : 17,
            "componentType" : 5126,
            "count" : 24,
            "type" : "VEC3"
        },
        {
            "bufferView" : 18,
            "componentType" : 5126,
            "count" : 24,
            "type" : "VEC2"
        },
        {
            "bufferView" : 19,
            "componentType" : 5126,
            "count" : 24,
            "max" : [
                -459.2442626953125,
                446.13836669921875,
                -643.20068359375
            ],
            "min" : [
                -850.5335693359375,
                61.70082092285156,
                -737.2849731445312
            ],
            "type" : "VEC3"
        },
        {
            "bufferView" : 20,
            "componentType" : 5126,
            "count" : 24,
            "type" : "VEC3"
        },
        {
            "bufferView" : 21,
            "componentType" : 5126,
            "count" : 24,
            "type" : "VEC2"
        },
        {
            "bufferView" : 22,
            "componentType" : 5126,
            "count" : 24,
            "max" : [
                107.49604797363281,
                177.99789428710938,
                -255.22671508789062
            ],
            "min" : [
                63.47563934326172,
                129.13525390625,
                -731.2264404296875
            ],
            "type" : "VEC3"
        },
        {
            "bufferView" : 23,
            "componentType" : 5126,
            "count" : 24,
            "type" : "VEC3"
        },
        {
            "bufferView" : 24,
            "componentType" : 5126,
            "count" : 24,
            "type" : "VEC2"
        },
        {
            "bufferView" : 25,
            "componentType" : 5126,
            "count" : 24,
            "max" : [
                -453.3564453125,
                97.81663513183594,
                -447.6318359375
            ],
            "min" : [
                -627.3741455078125,
                -542.9968872070312,
                -619.6318359375
            ],
            "type" : "VEC3"
        },
        {
            "bufferView" : 26,
            "componentType" : 5126,
            "count" : 24,
            "type" : "VEC3"
        },
        {
            "bufferView" : 27,
            "componentType" : 5126,
            "count" : 24,
            "type" : "VEC2"
        },
        {
            "bufferView" : 28,
            "componentType" : 5123,
            "count" : 36,
            "type" : "SCALAR"
        },
        {
            "bufferView" : 29,
            "componentType" : 5126,
            "count" : 24,
            "max" : [
                15.084779739379883,
                419.5843200683594,
                -344.2044982910156
            ],
            "min" : [
                -307.22369384765625,
                208.99905395507812,
                -416.20465087890625
            ],
            "type" : "VEC3"
        },
        {
            "bufferView" : 30,
            "componentType" : 5126,
            "count" : 24,
            "type" : "VEC3"
        },
        {
            "bufferView" : 31,
            "componentType" : 5126,
            "count" : 24,
            "type" : "VEC2"
        }
    ],
    "bufferViews" : [
        {
            "buffer" : 0,
            "byteLength" : 288,
            "byteOffset" : 0
        },
        {
            "buffer" : 0,
            "byteLength" : 288,
            "byteOffset" : 288
        },
        {
            "buffer" : 0,
            "byteLength" : 192,
            "byteOffset" : 576
        },
        {
            "buffer" : 0,
            "byteLength" : 72,
            "byteOffset" : 768
        },
        {
            "buffer" : 0,
            "byteLength" : 288,
            "byteOffset" : 840
        },
        {
            "buffer" : 0,
            "byteLength" : 288,
            "byteOffset" : 1128
        },
        {
            "buffer" : 0,
            "byteLength" : 192,
            "byteOffset" : 1416
        },
        {
            "buffer" : 0,
            "byteLength" : 72,
            "byteOffset" : 1608
        },
        {
            "buffer" : 0,
            "byteLength" : 288,
            "byteOffset" : 1680
        },
        {
            "buffer" : 0,
            "byteLength" : 288,
            "byteOffset" : 1968
        },
        {
            "buffer" : 0,
            "byteLength" : 192,
            "byteOffset" : 2256
        },
        {
            "buffer" : 0,
            "byteLength" : 72,
            "byteOffset" : 2448
        },
        {
            "buffer" : 0,
            "byteLength" : 288,
            "byteOffset" : 2520
        },
        {
            "buffer" : 0,
            "byteLength" : 288,
            "byteOffset" : 2808
        },
        {
            "buffer" : 0,
            "byteLength" : 192,
            "byteOffset" : 3096
        },
        {
            "buffer" : 0,
            "byteLength" : 72,
            "byteOffset" : 3288
        },
        {
            "buffer" : 0,
            "byteLength" : 288,
            "byteOffset" : 3360
        },
        {
            "buffer" : 0,
            "byteLength" : 288,
            "byteOffset" : 3648
        },
        {
            "buffer" : 0,
            "byteLength" : 192,
            "byteOffset" : 3936
        },
        {
            "buffer" : 0,
            "byteLength" : 288,
            "byteOffset" : 4128
        },
        {
            "buffer" : 0,
            "byteLength" : 288,
            "byteOffset" : 4416
        },
        {
            "buffer" : 0,
            "byteLength" : 192,
            "byteOffset" : 4704
        },
        {
            "buffer" : 0,
            "byteLength" : 288,
            "byteOffset" : 4896
        },
        {
            "buffer" : 0,
            "byteLength" : 288,
            "byteOffset" : 5184
        },
        {
            "buffer" : 0,
            "byteLength" : 192,
            "byteOffset" : 5472
        },
        {
            "buffer" : 0,
            "byteLength" : 288,
            "byteOffset" : 5664
        },
        {
            "buffer" : 0,
            "byteLength" : 288,
            "byteOffset" : 5952
        },
        {
            "buffer" : 0,
            "byteLength" : 192,
            "byteOffset" : 6240
        },
        {
            "buffer" : 0,
            "byteLength" : 72,
            "byteOffset" : 6432
        },
        {
            "buffer" : 0,
            "byteLength" : 288,
            "byteOffset" : 6504
        },
        {
            "buffer" : 0,
            "byteLength" : 288,
            "byteOffset" : 6792
        },
        {
            "buffer" : 0,
            "byteLength" : 192,
            "byteOffset" : 7080
        }
    ],
    "buffers" : [
        {
            "byteLength" : 7272,
            "uri" : "data:application/octet-stream;base64,"
        }
    ]
}
